<svg version="1.1" xmlns="http://www.w3.org/2000/svg" xmlns:xlink="http://www.w3.org/1999/xlink" width="42.28571" height="49.02762" viewBox="0,0,42.28571,49.02762"><g transform="translate(-219.28573,-150.65889)"><g data-paper-data="{&quot;isPaintingLayer&quot;:true}" fill-rule="nonzero" stroke-linejoin="miter" stroke-miterlimit="10" stroke-dasharray="" stroke-dashoffset="0" style="mix-blend-mode: normal"><path d="M261.57144,189.92858c0,5.38916 -9.46598,9.75794 -21.14286,9.75794c-11.67688,0 -21.14285,-4.36878 -21.14285,-9.75794c0,-5.38916 9.46597,-9.75794 21.14285,-9.75794c11.67688,0 21.14286,4.36877 21.14286,9.75794z" fill-opacity="0.36078" fill="#242021" stroke="none" stroke-width="0" stroke-linecap="butt"/><path d="M242.30262,185.01197v-8.23077h11.76923v8.23077z" fill="#ffffff" stroke="#000000" stroke-width="1.5" stroke-linecap="butt"/><path d="M244.26373,159.14828c0,0 0.0362,-2.49025 1.59513,-4.63222c1.13674,-1.56188 4.0095,-3.10374 4.45229,-3.10717c0.3349,-0.0026 0.38144,2.70964 0.42218,3.84511c0.08025,2.23657 0.0542,3.79904 0.0542,3.79904" fill="#ffffff" stroke="#000000" stroke-width="1.5" stroke-linecap="round"/><path d="M235.12087,159.05305c0,0 -0.07289,-1.56528 1.56929,-3.77721c1.13502,-1.52881 3.81909,-3.53485 4.33623,-3.53155c0.54952,0.0035 1.35993,2.71218 1.56144,4.43843c0.24786,2.12332 0.00924,2.91794 0.00924,2.91794" fill="#ffffff" stroke="#000000" stroke-width="1.5" stroke-linecap="round"/><path d="M247.88278,186.86258c0,0 -1.20405,3.91768 -1.9098,3.90126c-0.65563,-0.01524 -2.18544,-3.94888 -2.18544,-3.94888" data-paper-data="{&quot;index&quot;:null}" fill="#ffffff" stroke="#000000" stroke-width="1.5" stroke-linecap="round"/><path d="M251.97801,186.86258c0,0 -1.07804,3.91768 -1.70994,3.90126c-0.58702,-0.01524 -1.95673,-3.94888 -1.95673,-3.94888" data-paper-data="{&quot;index&quot;:null}" fill="#ffffff" stroke="#000000" stroke-width="1.5" stroke-linecap="round"/><path d="M232.07325,186.81496c0,0 -1.13404,3.91767 -1.79876,3.90126c-0.61752,-0.01524 -2.05838,-3.94888 -2.05838,-3.94888" fill="#ffffff" stroke="#000000" stroke-width="1.5" stroke-linecap="round"/><path d="M235.88278,186.86257c0,0 -0.99405,3.91767 -1.5767,3.90126c-0.54127,-0.01524 -1.80425,-3.94888 -1.80425,-3.94888" fill="#ffffff" stroke="#000000" stroke-width="1.5" stroke-linecap="round"/><path d="M226.13122,176.65179c1.3107,2.03701 3.27536,4.59175 3.27536,4.59175c0,0 -2.01743,0.65926 -4.32851,-0.5692c-0.33761,-0.17946 -1.96201,-1.10491 -2.59751,-2.32237c-0.80076,-1.53405 -0.82926,-3.14244 -0.77207,-4.01212c0.14213,-2.16132 1.45999,-4.5725 1.45999,-4.5725c0,0 1.79887,5.07561 2.96274,6.88444z" fill="#ffffff" stroke="#000000" stroke-width="1.5" stroke-linecap="butt"/><path d="M227.35047,184.25895v-15.57143c0,0 -0.16719,-1.76106 1.12034,-4.19979c0.68492,-1.29733 2.813,-3.58611 3.2029,-3.90653c1.28617,-1.05697 3.53386,-2.36724 3.53386,-2.36724l16.00004,0.0926c0,0 0.93009,0.24626 1.45024,0.52505c0.21454,0.11499 0.62467,0.39541 0.9264,0.71209c0.36212,0.38007 0.61005,0.81235 0.73796,1.07352c0.23274,0.4752 0.35159,1.21541 0.35159,1.21541l0.18424,10.1377c0,0 1.82551,-0.0679 2.80527,0.78278c0.66162,0.57446 0.5532,1.67485 0.56673,2.15401c0.00783,0.27701 -0.01083,0.67804 -0.08796,1.09133c-0.08282,0.44385 -0.23308,0.90185 -0.49037,1.23561c-0.43836,0.56861 -1.28243,0.71323 -1.28243,0.71323l-13.05311,-0.08594c0,0 -1.83707,0.08025 -2.55523,-0.7582c-0.87351,-1.01984 -0.13861,-2.79744 -0.18903,-2.71219c-0.0907,0.15333 -0.404,1.25484 -0.13296,2.12823c0.07509,0.24196 0.19503,0.46642 0.37697,0.64835c0.84422,0.84418 2.48258,0.73662 2.48258,0.73662l-0.02621,5.89116c0,0 -0.9722,0.42424 -1.00859,0.70484c-0.02658,0.205 0.61109,-0.49839 0.91998,-0.58019c0.68399,-0.18113 1.74705,-0.07922 1.95788,-0.09028c0.13666,-0.00716 7.9845,0.01578 7.9845,0.01578c0,0 1.32113,0.03538 1.56743,0.11784c0.80268,0.26873 1.04609,1.7314 0.54163,2.5716c-0.37257,0.62053 -1.45609,0.71215 -1.45609,0.71215l-24.59307,0.13562c0,0 -1.21912,-0.49868 -1.52965,-1.02715c-0.30101,-0.51227 -0.30585,-2.09656 -0.30585,-2.09656z" fill="#ffffff" stroke="#000000" stroke-width="1.5" stroke-linecap="butt"/><path d="M243.73992,164.24352l2.57143,2.33334" fill="none" stroke="#000000" stroke-width="1.5" stroke-linecap="round"/><path d="M253.02564,164.57686l-1.57143,1.42857" fill="none" stroke="#000000" stroke-width="1.5" stroke-linecap="round"/><path d="M241.50182,168.79115c0,-0.56543 0.45838,-1.02381 1.02381,-1.02381c0.56543,0 1.02381,0.45838 1.02381,1.02381c0,0.56543 -0.45838,1.02381 -1.02381,1.02381c-0.56543,0 -1.02381,-0.45838 -1.02381,-1.02381z" fill="#000000" stroke="#000000" stroke-width="1.5" stroke-linecap="butt"/><path d="M252.31135,168.62448c0,-0.39449 0.3198,-0.71429 0.71429,-0.71429c0.39449,0 0.71429,0.3198 0.71429,0.71429c0,0.39449 -0.3198,0.71429 -0.71429,0.71429c-0.39449,0 -0.71429,-0.3198 -0.71429,-0.71429z" fill="#000000" stroke="#000000" stroke-width="1.5" stroke-linecap="butt"/><path d="M249.64468,172.434h-3.47619" fill="none" stroke="#464646" stroke-width="1.5" stroke-linecap="round"/><path d="M254.50182,172.71971c0,0.81528 -1.01269,1.95238 -2.2619,1.95238c-1.24922,0 -2.35714,-0.99425 -2.35714,-1.80952c0,-0.81528 1.10793,-1.14286 2.35714,-1.14286c1.24922,0 2.2619,0.18472 2.2619,1z" fill="none" stroke="#000000" stroke-width="1.5" stroke-linecap="butt"/><path d="M234.6923,173.24353l3,0.09524" fill="none" stroke="#000000" stroke-width="1.5" stroke-linecap="round"/><path d="M235.16849,176.14829l2.23809,-0.42857" fill="none" stroke="#000000" stroke-width="1.5" stroke-linecap="round"/></g></g></svg>